<svg version="1.2" xmlns="http://www.w3.org/2000/svg" viewBox="0 0 236 343" width="236" height="343"><defs><linearGradient id="P" gradientUnits="userSpaceOnUse"/><linearGradient id="g1" x1="1" y1="1.8" x2="216.5" y2="1.8" href="#P"><stop stop-color="#2bc4f3"/><stop offset=".5" stop-color="#00aeee"/><stop offset="1" stop-color="#0095da"/></linearGradient><linearGradient id="g2" x1="318.6" y1="-99.9" x2="318.6" y2="401.1" href="#P"><stop stop-color="#fff33b"/><stop offset=".28" stop-color="#fdc70c"/><stop offset=".67" stop-color="#f3903f"/><stop offset=".89" stop-color="#ed683c"/><stop offset="1" stop-color="#e93e3a"/></linearGradient></defs><style>.a{fill:url(#g1)}.b{fill:url(#g2)}.c{fill:#fefefe}</style><path class="a" d="m72.2 203.9l-51.7 51.6v-181.2l136.5 0.1 33.1-33.1c7 2.2 14.9 0.6 20.4-5 7.9-7.9 7.9-20.7 0-28.6-7.8-7.9-20.7-7.9-28.6 0-5.5 5.5-7.1 13.5-4.9 20.5l-26.7 26.7h-139.5c-2.7 0-5.1 0.9-7 2.8-1.8 1.8-2.7 4.2-2.8 6.8v0.1 214.5c0 3.9 2.4 7.5 6 9 3.7 1.5 7.9 0.6 10.6-2.1l68.4-68.3 32.1 32.2-0.1-78.1h-78z"/><path class="b" d="m229 55.6c-3.6-1.5-7.9-0.7-10.6 2.1l-68.3 68.2-32.1-32.1v78h78l-32.1-32.1 51.6-51.5v181.1h-136.5l-33.1 33.1c-6.9-2.2-14.9-0.6-20.4 5-7.9 7.9-7.9 20.7 0 28.6 7.9 7.9 20.7 7.9 28.6 0 5.5-5.5 7.1-13.5 4.9-20.4l26.7-26.8h139.6 0.1c2.5 0 5-1 6.7-2.8 1.9-1.9 2.9-4.3 2.9-6.9v-214.5c0-3.9-2.4-7.5-6-9z"/><path class="c" d="m201.5 27.3c2.9-2.9 2.9-7.6 0-10.5-2.9-2.9-7.6-2.9-10.5 0-2.9 2.9-2.9 7.6 0 10.5 2.9 2.9 7.6 2.9 10.5 0z"/><path class="c" d="m45 326.9c2.9-2.9 2.9-7.6 0-10.5-2.9-2.9-7.6-2.9-10.4 0-2.9 2.9-2.9 7.6 0 10.5 2.8 2.9 7.5 2.9 10.4 0z"/></svg>