<svg xmlns="http://www.w3.org/2000/svg" version="1.1" xmlns:xlink="http://www.w3.org/1999/xlink" xmlns:svgjs="http://svgjs.dev/svgjs" width="1440" height="560" preserveAspectRatio="none" viewBox="0 0 1440 560"><g mask="url(&quot;#SvgjsMask1230&quot;)" fill="none"><rect width="1440" height="560" x="0" y="0" fill="url(&quot;#SvgjsLinearGradient1231&quot;)"></rect><path d="M1099 52L1265 218" stroke-width="6" stroke="url(&quot;#SvgjsLinearGradient1232&quot;)" stroke-linecap="round" class="BottomRight"></path><path d="M999 229L1258 488" stroke-width="10" stroke="url(&quot;#SvgjsLinearGradient1233&quot;)" stroke-linecap="round" class="TopLeft"></path><path d="M619 147L821 349" stroke-width="6" stroke="url(&quot;#SvgjsLinearGradient1234&quot;)" stroke-linecap="round" class="TopLeft"></path><path d="M970 501L723 254" stroke-width="6" stroke="url(&quot;#SvgjsLinearGradient1234&quot;)" stroke-linecap="round" class="TopLeft"></path><path d="M469 306L52 -111" stroke-width="8" stroke="url(&quot;#SvgjsLinearGradient1235&quot;)" stroke-linecap="round" class="BottomRight"></path><path d="M899 62L1120 283" stroke-width="6" stroke="url(&quot;#SvgjsLinearGradient1233&quot;)" stroke-linecap="round" class="TopLeft"></path><path d="M323 132L643 452" stroke-width="6" stroke="url(&quot;#SvgjsLinearGradient1232&quot;)" stroke-linecap="round" class="BottomRight"></path><path d="M120 255L-164 -29" stroke-width="6" stroke="url(&quot;#SvgjsLinearGradient1233&quot;)" stroke-linecap="round" class="TopLeft"></path><path d="M694 141L461 -92" stroke-width="10" stroke="url(&quot;#SvgjsLinearGradient1236&quot;)" stroke-linecap="round" class="TopLeft"></path><path d="M68 236L315 483" stroke-width="10" stroke="url(&quot;#SvgjsLinearGradient1235&quot;)" stroke-linecap="round" class="BottomRight"></path><path d="M830 331L429 -70" stroke-width="8" stroke="url(&quot;#SvgjsLinearGradient1237&quot;)" stroke-linecap="round" class="BottomRight"></path><path d="M194 505L553 864" stroke-width="10" stroke="url(&quot;#SvgjsLinearGradient1236&quot;)" stroke-linecap="round" class="TopLeft"></path><path d="M765 271L471 -23" stroke-width="8" stroke="url(&quot;#SvgjsLinearGradient1233&quot;)" stroke-linecap="round" class="TopLeft"></path><path d="M394 275L121 2" stroke-width="10" stroke="url(&quot;#SvgjsLinearGradient1233&quot;)" stroke-linecap="round" class="TopLeft"></path><path d="M630 32L1016 418" stroke-width="10" stroke="url(&quot;#SvgjsLinearGradient1235&quot;)" stroke-linecap="round" class="BottomRight"></path><path d="M1372 353L1639 620" stroke-width="8" stroke="url(&quot;#SvgjsLinearGradient1235&quot;)" stroke-linecap="round" class="BottomRight"></path><path d="M613 262L810 459" stroke-width="10" stroke="url(&quot;#SvgjsLinearGradient1237&quot;)" stroke-linecap="round" class="BottomRight"></path><path d="M1252 78L1604 430" stroke-width="8" stroke="url(&quot;#SvgjsLinearGradient1235&quot;)" stroke-linecap="round" class="BottomRight"></path><path d="M854 544L627 317" stroke-width="10" stroke="url(&quot;#SvgjsLinearGradient1235&quot;)" stroke-linecap="round" class="BottomRight"></path><path d="M374 463L600 689" stroke-width="8" stroke="url(&quot;#SvgjsLinearGradient1233&quot;)" stroke-linecap="round" class="TopLeft"></path><path d="M864 523L1198 857" stroke-width="6" stroke="url(&quot;#SvgjsLinearGradient1237&quot;)" stroke-linecap="round" class="BottomRight"></path><path d="M186 284L-112 -14" stroke-width="6" stroke="url(&quot;#SvgjsLinearGradient1236&quot;)" stroke-linecap="round" class="TopLeft"></path><path d="M840 371L438 -31" stroke-width="8" stroke="url(&quot;#SvgjsLinearGradient1233&quot;)" stroke-linecap="round" class="TopLeft"></path><path d="M1143 368L934 159" stroke-width="8" stroke="url(&quot;#SvgjsLinearGradient1233&quot;)" stroke-linecap="round" class="TopLeft"></path><path d="M271 364L604 697" stroke-width="8" stroke="url(&quot;#SvgjsLinearGradient1233&quot;)" stroke-linecap="round" class="TopLeft"></path><path d="M1389 485L1032 128" stroke-width="8" stroke="url(&quot;#SvgjsLinearGradient1237&quot;)" stroke-linecap="round" class="BottomRight"></path><path d="M229 464L629 864" stroke-width="10" stroke="url(&quot;#SvgjsLinearGradient1232&quot;)" stroke-linecap="round" class="BottomRight"></path><path d="M806 484L1005 683" stroke-width="6" stroke="url(&quot;#SvgjsLinearGradient1235&quot;)" stroke-linecap="round" class="BottomRight"></path><path d="M502 182L732 412" stroke-width="6" stroke="url(&quot;#SvgjsLinearGradient1235&quot;)" stroke-linecap="round" class="BottomRight"></path><path d="M15 105L-215 -125" stroke-width="10" stroke="url(&quot;#SvgjsLinearGradient1234&quot;)" stroke-linecap="round" class="TopLeft"></path><path d="M458 468L725 735" stroke-width="10" stroke="url(&quot;#SvgjsLinearGradient1234&quot;)" stroke-linecap="round" class="TopLeft"></path><path d="M122 460L-279 59" stroke-width="6" stroke="url(&quot;#SvgjsLinearGradient1232&quot;)" stroke-linecap="round" class="BottomRight"></path><path d="M511 413L186 88" stroke-width="10" stroke="url(&quot;#SvgjsLinearGradient1235&quot;)" stroke-linecap="round" class="BottomRight"></path><path d="M825 292L1016 483" stroke-width="8" stroke="url(&quot;#SvgjsLinearGradient1235&quot;)" stroke-linecap="round" class="BottomRight"></path><path d="M821 474L438 91" stroke-width="6" stroke="url(&quot;#SvgjsLinearGradient1233&quot;)" stroke-linecap="round" class="TopLeft"></path><path d="M1089 235L713 -141" stroke-width="6" stroke="url(&quot;#SvgjsLinearGradient1237&quot;)" stroke-linecap="round" class="BottomRight"></path><path d="M1095 187L1332 424" stroke-width="8" stroke="url(&quot;#SvgjsLinearGradient1233&quot;)" stroke-linecap="round" class="TopLeft"></path><path d="M1082 177L1470 565" stroke-width="8" stroke="url(&quot;#SvgjsLinearGradient1234&quot;)" stroke-linecap="round" class="TopLeft"></path><path d="M256 398L57 199" stroke-width="8" stroke="url(&quot;#SvgjsLinearGradient1235&quot;)" stroke-linecap="round" class="BottomRight"></path></g><defs><mask id="SvgjsMask1230"><rect width="1440" height="560" fill="#ffffff"></rect></mask><linearGradient x1="15.28%" y1="-39.29%" x2="84.72%" y2="139.29%" gradientUnits="userSpaceOnUse" id="SvgjsLinearGradient1231"><stop stop-color="rgba(38, 22, 43, 1)" offset="0.28"></stop><stop stop-color="rgba(38, 22, 43, 1)" offset="0.88"></stop></linearGradient><linearGradient x1="0%" y1="0%" x2="100%" y2="100%" id="SvgjsLinearGradient1232"><stop stop-color="rgba(176, 179, 220, 0)" offset="0"></stop><stop stop-color="rgba(176, 179, 220, 1)" offset="1"></stop></linearGradient><linearGradient x1="100%" y1="100%" x2="0%" y2="0%" id="SvgjsLinearGradient1233"><stop stop-color="rgba(132, 26, 165, 0)" offset="0"></stop><stop stop-color="rgba(132, 26, 165, 1)" offset="1"></stop></linearGradient><linearGradient x1="100%" y1="100%" x2="0%" y2="0%" id="SvgjsLinearGradient1234"><stop stop-color="rgba(176, 179, 220, 0)" offset="0"></stop><stop stop-color="rgba(176, 179, 220, 1)" offset="1"></stop></linearGradient><linearGradient x1="0%" y1="0%" x2="100%" y2="100%" id="SvgjsLinearGradient1235"><stop stop-color="rgba(132, 26, 165, 0)" offset="0"></stop><stop stop-color="rgba(132, 26, 165, 1)" offset="1"></stop></linearGradient><linearGradient x1="100%" y1="100%" x2="0%" y2="0%" id="SvgjsLinearGradient1236"><stop stop-color="rgba(85, 89, 136, 0)" offset="0"></stop><stop stop-color="rgba(85, 89, 136, 1)" offset="1"></stop></linearGradient><linearGradient x1="0%" y1="0%" x2="100%" y2="100%" id="SvgjsLinearGradient1237"><stop stop-color="rgba(85, 89, 136, 0)" offset="0"></stop><stop stop-color="rgba(85, 89, 136, 1)" offset="1"></stop></linearGradient></defs></svg>