<svg xmlns="http://www.w3.org/2000/svg" version="1.1" xmlns:xlink="http://www.w3.org/1999/xlink" xmlns:svgjs="http://svgjs.dev/svgjs" width="1440" height="560" preserveAspectRatio="none" viewBox="0 0 1440 560"><g mask="url(&quot;#SvgjsMask2171&quot;)" fill="none"><rect width="1440" height="560" x="0" y="0" fill="url(&quot;#SvgjsLinearGradient2172&quot;)"></rect><path d="M1123 495L861 233" stroke-width="6" stroke="url(&quot;#SvgjsLinearGradient2173&quot;)" stroke-linecap="round" class="TopLeft"></path><path d="M394 283L75 -36" stroke-width="8" stroke="url(&quot;#SvgjsLinearGradient2174&quot;)" stroke-linecap="round" class="TopLeft"></path><path d="M443 412L715 684" stroke-width="6" stroke="url(&quot;#SvgjsLinearGradient2174&quot;)" stroke-linecap="round" class="TopLeft"></path><path d="M30 323L-249 44" stroke-width="6" stroke="url(&quot;#SvgjsLinearGradient2173&quot;)" stroke-linecap="round" class="TopLeft"></path><path d="M304 247L528 471" stroke-width="8" stroke="url(&quot;#SvgjsLinearGradient2175&quot;)" stroke-linecap="round" class="TopLeft"></path><path d="M545 183L379 17" stroke-width="6" stroke="url(&quot;#SvgjsLinearGradient2176&quot;)" stroke-linecap="round" class="BottomRight"></path><path d="M447 239L823 615" stroke-width="8" stroke="url(&quot;#SvgjsLinearGradient2173&quot;)" stroke-linecap="round" class="TopLeft"></path><path d="M1413 550L1831 968" stroke-width="8" stroke="url(&quot;#SvgjsLinearGradient2173&quot;)" stroke-linecap="round" class="TopLeft"></path><path d="M1243 106L1662 525" stroke-width="6" stroke="url(&quot;#SvgjsLinearGradient2176&quot;)" stroke-linecap="round" class="BottomRight"></path><path d="M497 512L129 144" stroke-width="8" stroke="url(&quot;#SvgjsLinearGradient2173&quot;)" stroke-linecap="round" class="TopLeft"></path><path d="M668 97L413 -158" stroke-width="8" stroke="url(&quot;#SvgjsLinearGradient2175&quot;)" stroke-linecap="round" class="TopLeft"></path><path d="M515 257L707 449" stroke-width="10" stroke="url(&quot;#SvgjsLinearGradient2177&quot;)" stroke-linecap="round" class="BottomRight"></path><path d="M1130 118L921 -91" stroke-width="10" stroke="url(&quot;#SvgjsLinearGradient2177&quot;)" stroke-linecap="round" class="BottomRight"></path><path d="M497 2L100 -395" stroke-width="10" stroke="url(&quot;#SvgjsLinearGradient2175&quot;)" stroke-linecap="round" class="TopLeft"></path><path d="M691 58L477 -156" stroke-width="6" stroke="url(&quot;#SvgjsLinearGradient2178&quot;)" stroke-linecap="round" class="BottomRight"></path><path d="M146 102L-245 -289" stroke-width="10" stroke="url(&quot;#SvgjsLinearGradient2177&quot;)" stroke-linecap="round" class="BottomRight"></path><path d="M152 49L349 246" stroke-width="6" stroke="url(&quot;#SvgjsLinearGradient2175&quot;)" stroke-linecap="round" class="TopLeft"></path><path d="M219 428L76 285" stroke-width="10" stroke="url(&quot;#SvgjsLinearGradient2177&quot;)" stroke-linecap="round" class="BottomRight"></path><path d="M835 486L583 234" stroke-width="8" stroke="url(&quot;#SvgjsLinearGradient2177&quot;)" stroke-linecap="round" class="BottomRight"></path><path d="M749 515L519 285" stroke-width="10" stroke="url(&quot;#SvgjsLinearGradient2173&quot;)" stroke-linecap="round" class="TopLeft"></path><path d="M1400 122L998 -280" stroke-width="10" stroke="url(&quot;#SvgjsLinearGradient2174&quot;)" stroke-linecap="round" class="TopLeft"></path><path d="M887 259L1132 504" stroke-width="6" stroke="url(&quot;#SvgjsLinearGradient2174&quot;)" stroke-linecap="round" class="TopLeft"></path><path d="M847 439L642 234" stroke-width="8" stroke="url(&quot;#SvgjsLinearGradient2174&quot;)" stroke-linecap="round" class="TopLeft"></path><path d="M1333 525L1154 346" stroke-width="10" stroke="url(&quot;#SvgjsLinearGradient2173&quot;)" stroke-linecap="round" class="TopLeft"></path><path d="M1351 413L956 18" stroke-width="10" stroke="url(&quot;#SvgjsLinearGradient2178&quot;)" stroke-linecap="round" class="BottomRight"></path><path d="M1055 285L660 -110" stroke-width="10" stroke="url(&quot;#SvgjsLinearGradient2177&quot;)" stroke-linecap="round" class="BottomRight"></path><path d="M708 180L519 -9" stroke-width="8" stroke="url(&quot;#SvgjsLinearGradient2176&quot;)" stroke-linecap="round" class="BottomRight"></path><path d="M726 404L1107 785" stroke-width="10" stroke="url(&quot;#SvgjsLinearGradient2176&quot;)" stroke-linecap="round" class="BottomRight"></path><path d="M1199 54L957 -188" stroke-width="6" stroke="url(&quot;#SvgjsLinearGradient2178&quot;)" stroke-linecap="round" class="BottomRight"></path><path d="M114 313L-57 142" stroke-width="10" stroke="url(&quot;#SvgjsLinearGradient2177&quot;)" stroke-linecap="round" class="BottomRight"></path><path d="M551 448L963 860" stroke-width="6" stroke="url(&quot;#SvgjsLinearGradient2173&quot;)" stroke-linecap="round" class="TopLeft"></path><path d="M417 356L140 79" stroke-width="10" stroke="url(&quot;#SvgjsLinearGradient2178&quot;)" stroke-linecap="round" class="BottomRight"></path><path d="M290 508L700 918" stroke-width="6" stroke="url(&quot;#SvgjsLinearGradient2173&quot;)" stroke-linecap="round" class="TopLeft"></path><path d="M282 252L577 547" stroke-width="10" stroke="url(&quot;#SvgjsLinearGradient2176&quot;)" stroke-linecap="round" class="BottomRight"></path><path d="M1388 490L1142 244" stroke-width="10" stroke="url(&quot;#SvgjsLinearGradient2178&quot;)" stroke-linecap="round" class="BottomRight"></path><path d="M1026 456L1438 868" stroke-width="8" stroke="url(&quot;#SvgjsLinearGradient2177&quot;)" stroke-linecap="round" class="BottomRight"></path><path d="M405 507L705 807" stroke-width="10" stroke="url(&quot;#SvgjsLinearGradient2176&quot;)" stroke-linecap="round" class="BottomRight"></path><path d="M1299 534L1654 889" stroke-width="8" stroke="url(&quot;#SvgjsLinearGradient2174&quot;)" stroke-linecap="round" class="TopLeft"></path><path d="M1116 363L848 95" stroke-width="8" stroke="url(&quot;#SvgjsLinearGradient2176&quot;)" stroke-linecap="round" class="BottomRight"></path></g><defs><mask id="SvgjsMask2171"><rect width="1440" height="560" fill="#ffffff"></rect></mask><linearGradient x1="15.28%" y1="-39.29%" x2="84.72%" y2="139.29%" gradientUnits="userSpaceOnUse" id="SvgjsLinearGradient2172"><stop stop-color="rgba(38, 22, 43, 1)" offset="0.28"></stop><stop stop-color="rgba(38, 22, 43, 1)" offset="0.88"></stop></linearGradient><linearGradient x1="100%" y1="100%" x2="0%" y2="0%" id="SvgjsLinearGradient2173"><stop stop-color="rgba(176, 179, 220, 0)" offset="0"></stop><stop stop-color="rgba(176, 179, 220, 1)" offset="1"></stop></linearGradient><linearGradient x1="100%" y1="100%" x2="0%" y2="0%" id="SvgjsLinearGradient2174"><stop stop-color="rgba(132, 26, 165, 0)" offset="0"></stop><stop stop-color="rgba(132, 26, 165, 1)" offset="1"></stop></linearGradient><linearGradient x1="100%" y1="100%" x2="0%" y2="0%" id="SvgjsLinearGradient2175"><stop stop-color="rgba(85, 89, 136, 0)" offset="0"></stop><stop stop-color="rgba(85, 89, 136, 1)" offset="1"></stop></linearGradient><linearGradient x1="0%" y1="0%" x2="100%" y2="100%" id="SvgjsLinearGradient2176"><stop stop-color="rgba(132, 26, 165, 0)" offset="0"></stop><stop stop-color="rgba(132, 26, 165, 1)" offset="1"></stop></linearGradient><linearGradient x1="0%" y1="0%" x2="100%" y2="100%" id="SvgjsLinearGradient2177"><stop stop-color="rgba(176, 179, 220, 0)" offset="0"></stop><stop stop-color="rgba(176, 179, 220, 1)" offset="1"></stop></linearGradient><linearGradient x1="0%" y1="0%" x2="100%" y2="100%" id="SvgjsLinearGradient2178"><stop stop-color="rgba(85, 89, 136, 0)" offset="0"></stop><stop stop-color="rgba(85, 89, 136, 1)" offset="1"></stop></linearGradient></defs></svg>